<?xml version="1.0" standalone="no"?>
<!DOCTYPE svg PUBLIC "-//W3C//DTD SVG 20010904//EN"
 "http://www.w3.org/TR/2001/REC-SVG-20010904/DTD/svg10.dtd">
<svg version="1.0" xmlns="http://www.w3.org/2000/svg"
 width="711.000000pt" height="373.000000pt" viewBox="0 0 711.000000 373.000000"
 preserveAspectRatio="xMidYMid meet">

<g transform="translate(0.000000,373.000000) scale(0.100000,-0.100000)"
fill="#000000" stroke="none">
<path d="M1024 3341 c-16 -10 -45 -42 -63 -70 -19 -29 -53 -65 -77 -81 -23
-17 -69 -63 -101 -102 -41 -52 -84 -90 -145 -130 -71 -48 -95 -71 -143 -138
-38 -55 -71 -90 -103 -110 -70 -43 -82 -56 -82 -95 0 -38 20 -64 68 -89 16 -8
50 -40 75 -71 37 -45 47 -65 47 -94 0 -19 12 -60 27 -89 25 -49 26 -57 15 -98
-7 -24 -12 -55 -12 -68 0 -31 102 -165 192 -252 53 -51 79 -84 93 -120 28 -76
41 -89 118 -130 39 -21 92 -56 117 -79 51 -48 89 -69 140 -80 43 -9 98 -36
170 -85 30 -20 112 -67 181 -104 114 -61 138 -79 240 -179 147 -144 180 -161
314 -163 55 -1 113 -7 128 -13 15 -6 69 -38 118 -71 95 -63 128 -76 221 -85
41 -5 84 -21 155 -57 235 -122 201 -111 373 -118 165 -7 212 -19 284 -74 58
-43 81 -51 174 -56 l94 -6 54 -57 c67 -71 87 -76 152 -43 41 21 66 26 123 26
66 0 73 2 99 30 42 44 127 71 245 77 131 7 228 -9 349 -57 112 -46 129 -47
174 -20 24 15 50 20 98 20 81 0 109 14 170 86 29 33 66 64 89 74 50 21 102 64
119 99 7 14 17 48 21 76 8 56 75 178 111 202 13 8 58 23 101 34 88 22 124 49
142 109 6 21 32 60 56 87 45 47 45 49 39 101 -7 56 4 82 35 82 28 0 60 42 77
100 23 79 65 116 138 125 56 7 58 9 76 51 10 23 28 47 39 53 28 16 106 13 148
-4 37 -16 100 -20 119 -7 6 4 19 22 28 40 13 25 23 32 47 32 45 0 87 -26 108
-68 28 -54 57 -78 140 -112 88 -36 87 -36 101 -9 19 34 -11 66 -78 85 -70 20
-89 36 -104 86 -6 22 -21 44 -32 50 -12 5 -40 30 -62 54 -35 37 -48 44 -80 44
-32 0 -44 -6 -66 -32 l-26 -33 -31 23 c-31 22 -32 23 -62 5 -28 -17 -31 -17
-60 -1 -27 16 -34 16 -66 3 -63 -26 -97 -20 -152 29 -43 38 -58 45 -108 51
-32 4 -79 13 -105 22 -35 10 -66 13 -113 8 -75 -8 -93 0 -162 73 -45 48 -46
49 -163 27 -31 -6 -41 -2 -79 29 -39 33 -48 36 -107 36 -61 0 -67 2 -104 38
-22 20 -57 69 -77 107 -36 67 -41 71 -113 106 -45 22 -89 52 -109 74 -31 36
-33 41 -26 90 7 62 2 67 -77 88 -81 21 -116 44 -154 102 -58 89 -77 105 -128
105 -42 0 -48 3 -73 41 -32 49 -97 89 -144 89 -19 0 -66 -9 -104 -21 -129 -38
-208 -48 -297 -37 -87 11 -117 6 -205 -33 l-52 -23 -66 27 c-41 17 -84 27
-115 27 -43 0 -59 -7 -127 -54 -107 -73 -165 -101 -253 -121 -130 -30 -183
-46 -235 -73 -76 -40 -157 -37 -255 7 -66 30 -86 35 -166 37 -75 2 -99 6 -142
28 -31 16 -58 38 -66 55 -9 16 -30 41 -48 56 -31 26 -36 27 -107 22 -98 -7
-117 1 -245 113 -78 68 -110 103 -125 138 -37 81 -38 82 -93 102 -19 6 -36 26
-54 62 -48 95 -67 104 -170 71 -49 -15 -56 -15 -111 0 -74 21 -81 21 -119 -2z
m133 -22 c45 -10 62 -10 111 5 32 10 67 17 78 15 11 -3 32 -29 53 -68 27 -52
41 -66 76 -82 35 -16 47 -29 73 -81 25 -50 51 -80 127 -148 137 -121 161 -132
258 -124 l78 7 45 -48 c24 -26 44 -51 44 -56 0 -4 26 -20 57 -35 48 -24 71
-29 147 -30 80 -2 101 -7 175 -40 75 -32 91 -36 143 -31 34 3 85 18 124 36 36
17 115 42 176 56 130 29 208 63 296 130 82 62 130 69 219 31 35 -14 72 -26 84
-26 11 0 53 14 92 31 l71 32 93 -12 c100 -12 172 -3 307 40 110 34 167 19 220
-61 26 -39 33 -43 109 -55 33 -5 43 -14 82 -75 48 -75 100 -113 170 -126 71
-12 76 -18 69 -78 -6 -51 -5 -55 29 -93 21 -23 67 -55 110 -76 71 -34 76 -39
115 -109 63 -115 107 -148 195 -148 48 0 60 -4 97 -35 46 -39 57 -40 142 -23
l59 12 56 -57 c65 -66 81 -72 164 -63 43 5 72 3 102 -8 23 -8 68 -18 100 -21
47 -5 66 -13 95 -39 66 -59 108 -69 172 -42 30 12 37 11 66 -6 32 -19 35 -19
62 -2 28 16 31 16 53 0 34 -23 56 -20 81 14 28 39 69 40 103 4 14 -15 25 -30
25 -34 0 -4 16 -15 35 -26 22 -12 36 -28 40 -46 10 -45 43 -77 95 -92 68 -20
90 -34 90 -55 0 -18 -4 -18 -67 6 -69 26 -114 62 -144 119 -19 36 -73 64 -123
64 -31 0 -39 -5 -61 -40 -29 -46 -59 -52 -123 -24 -88 37 -184 11 -207 -56
-11 -32 -16 -36 -64 -42 -77 -12 -105 -30 -135 -90 -14 -28 -26 -59 -26 -69 0
-21 -38 -69 -55 -69 -7 0 -23 -8 -36 -18 -22 -19 -28 -67 -14 -112 4 -12 -9
-32 -38 -62 -24 -25 -48 -62 -55 -85 -15 -50 -59 -90 -110 -99 -72 -12 -110
-24 -135 -44 -37 -29 -106 -159 -113 -214 -9 -64 -39 -105 -104 -141 -30 -16
-82 -58 -115 -92 -74 -76 -89 -83 -164 -83 -42 0 -74 -7 -105 -22 l-45 -21
-108 41 c-138 53 -216 66 -362 59 -134 -6 -212 -31 -249 -78 -22 -27 -28 -29
-96 -29 -59 0 -82 -5 -121 -26 -60 -31 -81 -27 -124 26 -51 64 -74 74 -177 80
-85 5 -96 8 -136 38 -24 18 -68 45 -98 60 -50 24 -69 27 -211 32 -174 6 -136
-6 -374 119 -46 24 -105 46 -140 52 -125 21 -152 31 -220 78 -128 88 -147 95
-265 95 -103 1 -108 2 -164 36 -32 19 -104 81 -160 137 -92 93 -113 108 -236
174 -74 40 -164 92 -199 116 -38 26 -96 53 -145 68 -66 20 -90 33 -121 66 -22
22 -77 61 -123 87 -79 44 -84 49 -113 112 -22 47 -56 91 -123 160 -50 52 -109
121 -130 152 -32 48 -37 62 -32 90 19 90 18 103 -8 152 -14 27 -26 63 -26 80
-1 17 -6 40 -13 52 -25 43 -82 106 -114 125 -50 31 -63 47 -63 79 0 24 9 34
60 65 44 27 73 55 114 113 44 61 74 90 143 137 58 40 106 84 145 131 31 39 77
86 101 104 24 19 63 60 87 93 45 61 71 79 105 72 11 -3 44 -10 72 -16z"/>
<path d="M1248 3175 c-22 -29 -23 -42 -3 -25 22 18 20 -8 -2 -33 -17 -19 -17
-20 0 -14 22 8 22 -11 0 -35 -16 -18 -16 -18 0 -12 14 5 17 0 17 -26 0 -18 4
-29 10 -25 6 3 10 18 10 32 0 18 4 24 15 19 8 -3 15 -1 15 3 0 5 -7 11 -15 15
-8 3 -15 12 -15 20 0 10 6 13 18 9 16 -6 16 -5 0 14 -23 25 -25 51 -3 33 24
-20 17 4 -7 27 l-23 21 -17 -23z"/>
<path d="M1025 3113 c-16 -23 -16 -25 -1 -20 22 9 21 -22 -1 -40 -17 -14 -17
-14 0 -9 21 7 24 -22 2 -30 -8 -4 -15 -11 -15 -16 0 -6 6 -5 15 2 13 11 15 8
15 -19 0 -17 5 -31 10 -31 6 0 10 14 10 31 0 27 2 30 15 19 11 -9 15 -9 15 -1
0 6 -7 14 -15 17 -8 4 -15 13 -15 21 0 9 6 13 15 9 8 -3 15 -1 15 3 0 5 -7 11
-15 15 -8 3 -15 12 -15 20 0 10 6 13 16 9 15 -5 15 -3 -1 20 -9 15 -21 27 -25
27 -4 0 -16 -12 -25 -27z"/>
<path d="M1438 3035 c-36 -20 -119 -148 -135 -209 -7 -28 -12 -69 -12 -91 1
-32 3 -27 10 25 10 80 57 177 113 236 63 65 81 61 161 -33 73 -85 133 -138
181 -159 17 -7 74 -19 125 -25 l93 -12 61 -63 c68 -71 111 -88 250 -99 57 -5
105 -17 170 -43 56 -23 107 -36 137 -36 l48 -1 0 -41 c0 -62 26 -88 119 -119
139 -46 149 -96 29 -135 -36 -11 -68 -42 -68 -65 1 -5 7 1 14 15 9 16 37 34
78 50 49 20 64 30 66 49 5 35 -34 68 -111 93 -88 29 -117 57 -117 113 l0 42
113 41 c61 23 160 53 219 67 120 27 208 68 253 115 68 72 109 75 219 20 43
-22 91 -40 106 -40 23 0 35 -11 69 -63 58 -89 56 -105 -25 -204 -48 -59 -63
-103 -65 -187 -2 -59 11 -86 41 -86 32 0 50 34 56 106 4 38 13 80 21 94 l14
25 -20 -24 c-15 -16 -21 -38 -22 -70 0 -72 -19 -116 -49 -116 -24 0 -25 3 -28
62 -4 89 11 132 73 208 69 84 71 109 15 191 -22 33 -40 64 -40 71 0 6 24 23
54 38 63 31 205 44 294 27 40 -7 51 -7 42 2 -7 7 -59 11 -144 11 l-133 0 -74
-38 c-41 -20 -81 -37 -90 -37 -9 0 -50 18 -92 40 -107 57 -139 55 -214 -11
-73 -65 -130 -91 -268 -125 -61 -14 -157 -44 -215 -66 -140 -54 -185 -55 -305
-6 -69 28 -114 39 -195 48 -124 12 -174 33 -225 96 -47 57 -55 61 -156 74
-137 17 -168 37 -332 218 -40 45 -64 51 -109 27z"/>
<path d="M1148 2999 c-22 -23 -23 -33 -3 -25 20 7 19 -4 -2 -34 -16 -22 -16
-23 0 -17 23 9 21 -2 -5 -30 -12 -13 -16 -23 -10 -23 6 0 14 6 19 13 5 8 10 0
14 -23 l6 -35 2 33 c1 34 9 40 29 20 9 -9 12 -9 12 0 0 7 -4 12 -10 12 -5 0
-14 9 -21 21 -10 19 -9 20 12 14 l22 -7 -21 27 c-24 30 -22 46 3 25 21 -17 18
0 -4 28 -22 26 -21 26 -43 1z"/>
<path d="M880 2871 c14 -11 30 -21 35 -21 11 0 -7 14 -40 31 -13 7 -12 3 5
-10z"/>
<path d="M668 2829 c-9 -5 -49 -50 -88 -101 -60 -77 -70 -96 -70 -130 0 -37 6
-46 71 -109 l72 -68 -7 -68 c-4 -37 -9 -86 -11 -108 l-5 -40 10 35 c5 19 12
56 15 83 l6 47 87 2 87 2 -85 5 c-80 6 -85 7 -88 30 -2 14 -32 51 -73 90 -60
57 -69 69 -69 101 0 25 9 46 28 69 l28 34 80 -21 c44 -12 87 -22 95 -21 8 0
-2 5 -21 11 -116 32 -140 40 -140 47 0 14 83 103 104 111 13 5 15 9 6 9 -8 0
-23 -4 -32 -10z"/>
<path d="M741 2836 c2 -2 22 -6 44 -9 28 -5 34 -4 20 3 -19 8 -73 14 -64 6z"/>
<path d="M4122 2827 c-6 -6 -13 -24 -17 -39 -6 -24 -10 -26 -41 -21 -43 7 -64
-10 -63 -51 0 -30 1 -30 10 -7 8 20 14 22 39 17 17 -3 30 -1 30 4 0 6 -14 10
-32 10 -22 0 -29 3 -21 11 5 5 22 7 36 4 25 -7 37 -29 37 -72 0 -13 5 -23 10
-23 6 0 10 6 10 14 0 7 7 20 16 27 14 11 19 10 35 -10 13 -16 19 -19 19 -8 0
22 -27 40 -50 34 -29 -7 -43 23 -28 60 11 27 12 27 15 6 3 -13 9 -23 14 -23 6
0 7 9 4 20 -4 13 -2 20 7 21 7 0 4 4 -7 9 -16 7 -14 9 15 9 26 1 31 -2 20 -9
-13 -8 -13 -10 2 -10 9 0 18 -10 21 -22 3 -20 4 -21 11 -5 13 27 -19 67 -53
67 -16 0 -33 -6 -39 -13z"/>
<path d="M4218 2736 c-23 -17 -25 -78 -3 -70 10 4 12 11 6 22 -6 10 -3 22 10
36 26 27 52 12 60 -35 6 -34 13 -22 9 16 -4 43 -46 59 -82 31z"/>
<path d="M4380 2704 c64 -34 85 -62 136 -185 25 -61 48 -99 71 -119 18 -17 37
-30 41 -30 4 0 13 -4 21 -9 11 -7 8 -17 -17 -47 -17 -22 -50 -84 -72 -138 -72
-173 -113 -214 -187 -187 -19 7 -36 11 -39 9 -2 -3 14 -11 36 -18 81 -27 130
20 199 192 48 120 89 178 129 179 22 1 19 3 -12 10 -49 12 -99 42 -118 72 -8
12 -29 58 -47 102 -49 119 -98 175 -167 190 -19 5 -10 -3 26 -21z"/>
<path d="M1300 2678 c0 -10 16 -61 37 -115 20 -54 37 -117 37 -141 1 -32 3
-38 9 -24 6 12 3 40 -6 73 -22 80 -77 227 -77 207z"/>
<path d="M4145 2680 c-3 -5 -1 -10 4 -10 6 0 11 5 11 10 0 6 -2 10 -4 10 -3 0
-8 -4 -11 -10z"/>
<path d="M4250 2670 c0 -5 5 -10 11 -10 5 0 7 5 4 10 -3 6 -8 10 -11 10 -2 0
-4 -4 -4 -10z"/>
<path d="M1490 2591 c53 -36 107 -113 150 -218 75 -181 131 -255 216 -284 49
-17 175 -17 233 0 64 19 45 22 -29 4 -123 -28 -238 2 -304 79 -19 22 -60 98
-91 169 -32 71 -70 149 -86 174 -26 42 -100 105 -122 105 -6 0 9 -13 33 -29z"/>
<path d="M3228 2595 c-22 -29 -23 -42 -3 -25 24 20 19 -10 -7 -37 -22 -23 -12
-33 10 -11 20 20 14 -7 -9 -36 -11 -14 -16 -26 -10 -26 5 0 13 6 18 13 5 8 10
0 14 -23 l6 -35 2 39 c1 38 1 39 21 21 11 -10 20 -13 20 -7 0 7 -9 17 -20 24
-11 7 -20 19 -20 27 0 12 3 12 12 3 22 -22 32 -12 10 11 -26 28 -31 57 -7 37
24 -20 25 -8 2 22 l-22 26 -17 -23z"/>
<path d="M3925 2470 c-38 -38 -65 -70 -60 -70 5 0 40 30 76 66 l67 67 54 -47
c53 -46 68 -54 68 -36 0 6 -5 10 -10 10 -6 0 -30 18 -54 40 -24 22 -50 40 -57
40 -8 0 -46 -31 -84 -70z"/>
<path d="M3068 2505 c-22 -29 -23 -42 -3 -25 24 20 19 -10 -7 -37 -22 -23 -12
-33 10 -11 9 9 12 9 12 0 0 -7 -9 -21 -21 -33 -21 -21 -21 -21 -1 -15 18 6 21
2 25 -26 4 -32 4 -32 5 6 2 38 2 39 22 21 27 -24 26 -7 -2 22 -24 26 -18 43 9
22 10 -7 8 -2 -4 12 -27 30 -33 59 -8 39 24 -20 25 -8 2 22 l-22 26 -17 -23z"/>
<path d="M1060 2469 c68 -39 136 -93 152 -122 7 -12 15 -51 18 -87 l5 -65 67
-5 c93 -7 136 -42 153 -123 6 -28 37 -67 54 -67 5 0 -4 13 -20 29 -16 16 -29
39 -29 51 0 32 -26 75 -57 95 -16 11 -55 21 -93 24 l-65 6 -6 67 c-6 67 -15
86 -64 130 -26 24 -148 98 -161 98 -5 0 16 -14 46 -31z"/>
<path d="M2066 2429 c-10 -17 -16 -33 -13 -36 3 -3 13 9 22 27 9 18 15 34 13
36 -2 2 -12 -10 -22 -27z"/>
<path d="M3330 2428 l-22 -30 22 7 c24 8 22 -3 -8 -37 -17 -20 -3 -25 16 -6 7
7 12 8 12 2 0 -6 -9 -19 -20 -29 -11 -10 -20 -23 -20 -29 0 -6 5 -5 12 2 19
19 26 14 31 -20 l4 -33 1 33 c2 29 5 33 25 27 l22 -6 -22 17 c-13 9 -23 23
-23 31 0 13 3 13 15 3 8 -7 15 -8 15 -2 0 5 -7 15 -15 22 -8 7 -15 19 -15 27
0 13 3 13 15 3 21 -17 19 -3 -4 25 l-18 24 -23 -31z"/>
<path d="M4152 2358 c-56 -56 -100 -104 -97 -107 3 -3 50 40 105 94 98 98 100
99 115 78 26 -37 46 -53 65 -53 11 0 27 -16 42 -42 13 -24 31 -44 41 -46 15
-3 14 0 -5 20 -13 13 -31 39 -40 56 -10 20 -25 32 -37 32 -11 0 -32 16 -47 35
-14 19 -29 35 -33 35 -3 0 -52 -46 -109 -102z"/>
<path d="M1951 2445 c0 -5 8 -26 19 -45 11 -19 19 -30 19 -25 0 6 -8 26 -19
45 -11 19 -19 31 -19 25z"/>
<path d="M1905 2380 c8 -16 20 -42 26 -56 5 -15 12 -24 15 -21 6 5 -43 107
-51 107 -3 0 1 -13 10 -30z"/>
<path d="M2116 2359 c-16 -29 -24 -49 -18 -45 13 8 63 96 54 96 -4 0 -20 -23
-36 -51z"/>
<path d="M3170 2345 c-23 -25 -16 -37 8 -13 9 9 12 7 12 -10 0 -13 -7 -25 -15
-28 -8 -4 -15 -11 -15 -16 0 -6 6 -5 15 2 24 20 19 -10 -7 -37 -22 -23 -12
-33 10 -11 9 9 12 5 12 -20 0 -18 5 -32 10 -32 6 0 10 13 10 30 0 24 3 28 18
23 16 -6 16 -5 0 14 -23 25 -25 51 -3 33 11 -9 15 -9 15 -1 0 6 -7 14 -15 17
-8 4 -15 13 -15 21 0 9 6 13 15 9 20 -7 19 0 -5 24 -25 25 -22 25 -50 -5z"/>
<path d="M4745 2340 c27 -12 43 -12 25 0 -8 5 -22 9 -30 9 -10 0 -8 -3 5 -9z"/>
<path d="M4870 2275 c13 -14 26 -25 28 -25 3 0 -5 11 -18 25 -13 14 -26 25
-28 25 -3 0 5 -11 18 -25z"/>
<path d="M4783 2247 c-16 -60 -54 -102 -124 -138 -81 -40 -84 -45 -119 -221
-14 -72 -49 -110 -122 -133 -83 -27 -116 -51 -129 -95 -6 -21 -8 -51 -4 -67
l7 -28 12 30 c15 35 41 49 131 70 146 33 204 92 249 248 14 47 27 68 66 104
50 46 91 114 89 149 -1 15 -2 13 -8 -6 -15 -49 -40 -87 -93 -141 -44 -45 -56
-66 -72 -122 -38 -137 -94 -189 -246 -226 -50 -13 -94 -30 -108 -44 l-25 -22
7 35 c9 49 40 76 112 100 109 37 135 68 153 188 18 113 34 136 129 188 30 15
62 39 71 53 21 30 44 96 39 112 -2 6 -9 -10 -15 -34z"/>
<path d="M4841 2204 c0 -11 3 -14 6 -6 3 7 2 16 -1 19 -3 4 -6 -2 -5 -13z"/>
<path d="M645 2149 c4 -73 21 -104 110 -204 40 -45 93 -113 117 -151 25 -38
61 -84 82 -101 36 -32 81 -51 93 -39 4 3 -2 6 -13 6 -39 0 -96 52 -151 137
-30 47 -83 116 -118 153 -73 77 -104 133 -116 205 l-8 50 4 -56z"/>
<path d="M690 2170 c22 -18 33 -20 101 -14 63 5 79 3 92 -11 24 -23 21 -37
-13 -70 -38 -36 -38 -59 -1 -117 49 -78 88 -86 166 -37 90 57 129 36 123 -66
-3 -45 -11 -70 -31 -100 -15 -22 -27 -46 -27 -55 0 -13 11 4 57 90 7 14 13 49
13 78 0 43 -5 58 -25 78 -29 29 -47 27 -114 -17 -71 -46 -104 -39 -154 36 -35
51 -34 75 3 110 36 34 37 48 9 76 -19 19 -29 21 -91 15 -52 -5 -76 -2 -101 10
l-32 15 25 -21z"/>
<path d="M4930 2141 c0 -10 -21 -49 -46 -85 -31 -46 -44 -75 -42 -93 3 -26 8
-31 62 -55 16 -7 29 -17 29 -23 1 -5 -20 -21 -46 -35 -57 -30 -61 -36 -88
-122 -24 -76 -16 -108 26 -108 28 0 52 21 77 68 22 41 52 42 104 2 48 -36 64
-37 94 -5 13 14 28 25 33 25 5 0 26 -15 47 -33 34 -32 42 -34 125 -39 102 -7
121 -17 177 -99 21 -30 69 -84 107 -120 85 -81 96 -119 62 -209 -33 -85 -48
-99 -132 -121 -132 -35 -194 -99 -244 -251 -42 -127 -56 -146 -158 -214 -127
-85 -164 -102 -259 -119 -79 -14 -80 -14 -21 -10 34 3 87 13 116 23 63 23 257
150 279 184 8 12 27 61 43 108 35 107 47 132 92 181 42 46 86 71 158 88 73 18
93 35 127 107 30 64 34 114 14 164 -4 11 12 25 55 50 80 46 115 87 134 158 27
98 29 100 92 117 76 21 112 35 119 47 4 5 -7 3 -22 -5 -16 -8 -55 -20 -86 -27
-68 -14 -92 -38 -107 -112 -17 -76 -39 -105 -120 -159 l-74 -48 -39 30 c-39
32 -84 82 -140 158 -54 72 -75 83 -177 90 -84 6 -92 8 -124 39 -40 39 -56 40
-85 7 -12 -14 -26 -25 -30 -25 -5 0 -28 14 -51 31 -56 40 -97 37 -121 -8 -26
-50 -40 -63 -65 -63 -32 0 -36 20 -19 87 19 75 38 100 102 134 l51 28 22 -60
c12 -33 24 -58 26 -56 7 8 -38 115 -55 131 -10 8 -36 22 -58 29 -56 20 -55 46
1 131 39 60 57 106 40 106 -3 0 -5 -8 -5 -19z"/>
<path d="M2730 2139 c0 -4 34 -38 75 -75 42 -37 78 -78 81 -89 3 -13 -4 -40
-17 -64 -32 -61 -15 -99 55 -124 7 -2 -22 -171 -39 -222 -6 -16 -5 -17 4 -5
22 29 1 -62 -27 -120 -21 -42 -44 -67 -97 -108 -39 -28 -76 -50 -82 -47 -8 3
-21 -25 -38 -80 -36 -117 -66 -170 -143 -247 -37 -38 -69 -68 -72 -68 -4 0
-31 21 -61 47 -85 73 -118 83 -251 81 -93 -1 -120 2 -152 17 -22 11 -94 74
-160 140 -120 120 -123 122 -261 189 -217 107 -256 138 -281 224 -17 58 -44
92 -71 92 -26 -1 -131 -28 -111 -29 9 -1 39 4 67 11 45 10 53 9 71 -7 10 -9
27 -43 36 -74 23 -80 67 -116 268 -218 l171 -87 120 -122 c142 -144 171 -158
309 -148 103 8 151 -5 217 -59 99 -81 112 -87 220 -107 128 -22 142 -28 249
-95 96 -61 149 -76 231 -64 113 18 215 22 252 10 19 -7 73 -37 119 -68 117
-79 178 -105 259 -111 88 -6 136 16 206 97 59 66 94 82 223 102 89 13 168 7
208 -17 16 -9 42 -39 58 -67 16 -27 40 -58 54 -68 28 -21 269 -63 322 -56 31
4 31 4 -7 6 -68 3 -273 39 -300 53 -13 7 -39 38 -57 68 -42 69 -80 91 -170 98
l-70 5 -37 76 c-31 65 -36 86 -36 148 0 69 1 73 51 145 63 89 81 143 65 188
-14 41 -8 50 32 50 56 0 129 -53 227 -162 93 -104 162 -173 190 -188 8 -5 -57
65 -145 155 -175 179 -220 211 -286 202 l-40 -5 -95 106 c-53 59 -104 123
-114 142 -22 43 -54 73 -73 68 -8 -1 -30 -23 -48 -47 -23 -30 -56 -56 -105
-81 -59 -30 -114 -68 -188 -132 -5 -4 -7 -10 -4 -13 3 -3 36 19 74 50 38 30
97 68 130 84 40 19 75 46 100 75 21 25 44 46 51 46 7 0 28 -24 47 -54 19 -30
79 -103 134 -164 54 -60 102 -121 106 -136 10 -41 -9 -94 -64 -174 -75 -112
-79 -176 -17 -307 25 -52 33 -77 24 -80 -7 -2 -41 -8 -77 -15 -83 -15 -122
-38 -188 -111 -39 -43 -64 -62 -95 -70 -86 -23 -211 9 -304 77 -21 16 -40 30
-42 31 -3 2 20 29 51 61 60 61 79 90 77 119 0 10 -5 3 -10 -15 -5 -17 -36 -60
-68 -94 l-59 -63 -49 28 c-78 42 -135 50 -221 32 -155 -32 -209 -22 -343 65
-71 46 -126 65 -229 81 -41 6 -86 17 -99 23 -23 13 -23 13 32 62 75 67 122
141 152 237 25 82 25 82 91 127 76 52 127 105 148 155 8 19 20 79 26 133 6 53
16 121 23 150 l12 53 90 41 c50 23 115 49 145 59 30 10 48 18 39 18 -23 1 -90
-23 -192 -70 -98 -46 -140 -46 -159 -3 -10 20 -8 33 10 70 12 24 22 52 22 61
0 9 -38 54 -85 98 -47 45 -85 78 -85 74z"/>
<path d="M3748 2030 c-40 -38 -76 -70 -80 -70 -4 0 -33 23 -63 50 -30 28 -63
50 -73 50 -19 0 -124 -84 -148 -119 -13 -17 -27 -21 -82 -23 -63 -2 -64 -2
-14 -5 28 -2 52 -8 52 -12 0 -9 -73 -78 -135 -128 -27 -21 -34 -32 -23 -33 9
0 87 68 173 150 92 89 164 150 175 150 18 0 127 -86 129 -101 1 -4 -24 -14
-55 -24 -30 -9 -68 -28 -85 -42 -43 -37 -38 -65 21 -120 42 -38 50 -52 50 -81
0 -37 -13 -52 -142 -164 -98 -86 -102 -138 -18 -234 69 -79 75 -134 19 -165
-11 -6 -27 -26 -35 -45 -19 -46 -2 -87 60 -138 26 -21 51 -48 56 -60 7 -16 9
-17 9 -4 1 9 -23 38 -53 65 -57 50 -80 91 -69 120 3 10 24 37 45 60 56 62 52
83 -34 182 -75 86 -61 146 54 236 99 78 118 102 118 149 0 34 -6 44 -50 84
-79 71 -65 103 64 150 l60 21 63 -55 c35 -31 63 -51 63 -46 0 6 -26 34 -59 64
l-58 53 73 69 c86 79 97 80 158 17 36 -37 38 -43 28 -66 -7 -14 -12 -36 -11
-48 1 -24 4 -18 13 26 4 15 11 27 16 27 5 0 35 -23 66 -51 31 -28 59 -48 62
-44 4 4 -1 12 -10 19 -28 20 -110 98 -106 100 46 33 69 46 83 46 9 0 44 -26
78 -57 105 -98 117 -107 123 -100 4 3 -8 18 -25 33 -17 14 -29 30 -25 35 3 5
-1 9 -9 9 -8 0 -40 23 -71 50 -31 28 -62 50 -68 50 -6 0 -31 -11 -54 -25 l-43
-25 -51 45 c-28 25 -59 45 -70 45 -10 0 -52 -31 -92 -70z"/>
<path d="M1538 1993 c6 -2 18 -2 25 0 6 3 1 5 -13 5 -14 0 -19 -2 -12 -5z"/>
<path d="M4276 1991 c-4 -5 3 -7 14 -4 23 6 26 13 6 13 -8 0 -17 -4 -20 -9z"/>
<path d="M1593 1983 c9 -2 23 -2 30 0 6 3 -1 5 -18 5 -16 0 -22 -2 -12 -5z"/>
<path d="M2259 1976 c-25 -7 -91 -42 -146 -79 -124 -84 -178 -99 -268 -73 -51
15 -70 28 -128 87 -37 38 -70 69 -73 69 -15 0 96 -115 131 -135 108 -64 199
-55 323 30 90 61 154 95 179 95 10 0 25 5 33 10 19 13 6 12 -51 -4z"/>
<path d="M2357 1969 c40 -12 80 -59 89 -105 10 -55 -19 -114 -104 -210 -126
-142 -132 -154 -132 -273 -1 -87 -16 -136 -56 -187 -44 -54 -64 -96 -63 -129
1 -25 3 -22 10 14 9 45 12 51 63 115 41 52 55 100 56 191 1 102 20 146 104
233 120 127 151 191 126 266 -14 42 -72 96 -103 95 -17 -1 -15 -3 10 -10z"/>
<path d="M5335 1930 c-8 -12 -45 -121 -45 -131 0 -4 10 -9 22 -11 14 -2 25
-13 29 -28 l7 -25 1 27 c1 21 7 28 29 31 l27 4 -27 2 c-19 1 -28 7 -31 24 l-4
22 -2 -22 c-1 -16 -7 -23 -20 -23 -19 0 -19 1 1 61 11 33 22 58 24 56 2 -2 13
-28 23 -58 11 -30 20 -47 20 -38 1 21 -29 108 -39 114 -5 3 -11 1 -15 -5z"/>
<path d="M3941 1871 c0 -14 -10 -43 -20 -65 -21 -46 -38 -121 -21 -96 5 8 10
24 10 35 0 11 9 38 21 59 11 21 18 50 16 65 -4 25 -4 25 -6 2z"/>
<path d="M1406 1791 c-34 -56 -51 -97 -23 -56 27 39 69 115 64 115 -3 0 -22
-26 -41 -59z"/>
<path d="M5690 1800 c-23 -23 -16 -55 9 -44 33 14 61 16 61 5 0 -6 5 -11 10
-11 17 0 11 36 -8 53 -25 22 -48 21 -72 -3z m64 -9 c3 -5 -9 -11 -27 -14 -36
-5 -42 -3 -32 12 8 13 52 15 59 2z"/>
<path d="M2173 1741 c12 -27 23 -45 25 -41 3 9 -35 90 -43 90 -2 0 6 -22 18
-49z"/>
<path d="M1467 1693 c-21 -41 -36 -77 -34 -80 3 -2 21 31 41 73 20 42 35 78
33 80 -2 2 -20 -31 -40 -73z"/>
<path d="M1651 1711 c-43 -81 -39 -91 5 -13 20 35 34 65 31 68 -2 2 -18 -22
-36 -55z"/>
<path d="M5523 1739 c-25 -16 -33 -28 -32 -47 2 -24 2 -24 6 -4 5 25 13 28 31
10 10 -10 12 -7 10 12 -2 19 2 25 17 25 16 0 21 -8 23 -36 2 -30 -1 -37 -17
-42 -15 -3 -21 -13 -21 -31 0 -29 3 -30 31 -16 13 8 19 7 19 0 0 -6 5 -8 10
-5 18 11 -2 27 -26 21 -13 -4 -24 -2 -24 4 0 12 45 24 59 15 6 -3 11 -15 11
-26 0 -10 5 -19 10 -19 6 0 10 5 10 11 0 18 -20 49 -33 49 -7 0 -13 11 -13 25
-2 23 2 25 36 25 32 0 39 -4 43 -22 3 -13 4 -6 4 15 -1 26 -7 42 -18 48 -31
16 -102 10 -136 -12z m127 1 c12 -8 12 -10 -2 -15 -23 -9 -50 -3 -56 13 -4 14
36 16 58 2z"/>
<path d="M2696 1688 c-42 -51 -133 -197 -112 -179 8 7 27 34 42 59 37 65 103
152 114 152 21 0 8 -67 -22 -120 -76 -135 -98 -176 -98 -190 0 -8 11 8 24 37
13 28 39 75 58 105 46 72 58 103 58 143 0 48 -21 45 -64 -7z"/>
<path d="M5732 1718 c-15 -15 -16 -54 -2 -63 6 -3 10 3 10 14 0 14 6 21 20 21
13 0 18 -5 14 -15 -8 -20 6 -19 22 3 13 16 13 16 14 0 0 -27 20 -22 20 5 0 31
-18 47 -55 47 -17 0 -36 -5 -43 -12z m73 -8 c4 -6 -8 -10 -30 -10 -22 0 -34 4
-30 10 3 6 17 10 30 10 13 0 27 -4 30 -10z"/>
<path d="M3848 1703 c6 -2 12 -12 12 -21 0 -15 2 -15 10 -2 9 15 -4 30 -25 29
-5 0 -4 -3 3 -6z"/>
<path d="M1551 1669 c-6 -18 -9 -34 -7 -36 2 -2 9 10 16 27 7 17 10 33 8 36
-3 3 -11 -9 -17 -27z"/>
<path d="M1716 1682 c-10 -17 -26 -62 -21 -62 7 0 37 62 32 67 -3 2 -8 0 -11
-5z"/>
<path d="M2522 1615 c0 -35 35 -158 37 -128 1 6 -4 24 -10 40 -6 15 -15 51
-19 78 -7 48 -8 49 -8 10z"/>
<path d="M5712 1627 c-16 -8 -22 -19 -22 -44 0 -18 5 -33 10 -33 6 0 10 7 10
15 0 18 26 20 34 3 3 -7 5 -4 3 7 -1 11 -10 20 -19 20 -29 0 -31 14 -4 21 31
7 56 -10 56 -39 0 -16 3 -18 11 -10 9 9 8 18 -4 36 -19 29 -44 37 -75 24z"/>
<path d="M5102 1614 c-23 -16 -30 -58 -12 -69 7 -4 9 2 5 17 -6 22 -4 23 34
20 26 -3 41 -10 44 -20 3 -10 5 -3 6 14 1 24 -5 33 -24 42 -32 15 -26 15 -53
-4z m58 -12 c0 -5 -13 -9 -30 -9 -16 0 -27 4 -24 9 3 4 16 8 30 8 13 0 24 -4
24 -8z"/>
<path d="M4977 1552 c-18 -20 -24 -77 -7 -67 6 3 10 15 10 27 0 16 5 19 23 14
12 -3 30 -6 39 -6 9 0 19 -10 21 -22 3 -17 5 -15 6 9 2 56 -56 85 -92 45z m63
-2 c11 -7 6 -10 -20 -10 -26 0 -31 3 -20 10 8 5 17 10 20 10 3 0 12 -5 20 -10z"/>
<path d="M5130 1560 c0 -5 5 -10 11 -10 5 0 7 5 4 10 -3 6 -8 10 -11 10 -2 0
-4 -4 -4 -10z"/>
<path d="M2024 1525 c-21 -50 -23 -89 -5 -90 8 0 17 -9 21 -19 6 -19 7 -18 13
3 3 13 10 20 16 17 20 -13 23 17 6 62 -25 67 -32 71 -51 27z m39 -31 l16 -42
-34 0 -33 0 15 45 c8 24 16 43 17 41 2 -2 10 -22 19 -44z"/>
<path d="M3215 1517 c-25 -61 -29 -87 -12 -87 9 0 21 -8 26 -17 10 -17 10 -17
11 0 0 10 8 17 20 17 17 0 19 4 14 28 -9 38 -32 92 -39 92 -3 0 -12 -15 -20
-33z m45 -57 c0 -9 -9 -15 -25 -15 -28 0 -30 8 -13 56 l12 34 12 -30 c7 -17
13 -37 14 -45z"/>
<path d="M1869 1513 c-24 -61 -49 -137 -49 -149 0 -7 14 -15 30 -19 23 -5 30
-12 30 -31 0 -14 4 -23 9 -20 5 3 7 15 4 26 -4 17 0 20 25 20 17 0 33 4 36 9
8 12 -54 191 -65 191 -5 0 -14 -12 -20 -27z m50 -72 c26 -79 26 -81 1 -81 -15
0 -20 7 -20 25 0 14 -4 25 -10 25 -5 0 -10 -11 -10 -25 0 -20 -5 -25 -26 -25
-17 0 -24 5 -22 13 3 6 16 42 29 79 13 37 26 64 30 60 4 -4 16 -36 28 -71z"/>
<path d="M2839 1504 c-31 -34 -32 -35 -6 -19 23 15 56 55 44 55 -2 0 -19 -16
-38 -36z"/>
<path d="M5162 1524 c-16 -11 -22 -24 -21 -47 1 -24 3 -26 6 -9 4 18 11 22 44
22 32 0 39 -3 39 -20 0 -11 5 -20 10 -20 19 0 10 47 -13 68 -28 26 -36 27 -65
6z m42 0 c25 -9 19 -24 -9 -24 -24 0 -32 10 -18 23 8 8 8 8 27 1z"/>
<path d="M2757 1445 c-20 -14 -37 -31 -37 -37 0 -7 15 1 33 18 17 16 36 32 42
36 21 18 -3 6 -38 -17z"/>
<path d="M5170 1460 c0 -13 11 -13 30 0 12 8 11 10 -7 10 -13 0 -23 -4 -23
-10z"/>
<path d="M3061 1369 c-17 -51 -28 -96 -25 -100 3 -5 19 -9 36 -9 25 0 29 -3
25 -20 -3 -11 -1 -20 4 -20 5 0 9 11 9 25 0 21 5 25 30 25 36 0 37 6 9 91 -25
75 -36 99 -48 99 -5 0 -23 -41 -40 -91z m70 4 c12 -38 24 -74 27 -80 2 -8 -5
-13 -22 -13 -22 0 -26 4 -26 30 0 17 -5 30 -11 30 -7 0 -10 -12 -7 -30 4 -26
1 -30 -19 -30 -28 0 -28 2 -3 76 28 82 29 84 34 84 2 0 14 -30 27 -67z"/>
<path d="M1997 1328 c-8 -19 -17 -44 -21 -56 -3 -12 -9 -31 -12 -42 -4 -16 -1
-20 20 -20 20 0 26 -5 27 -22 l0 -23 9 23 c6 12 18 22 30 22 25 0 25 6 -1 77
-28 77 -35 82 -52 41z m48 -68 c13 -38 13 -40 -5 -40 -12 0 -20 7 -21 18 -1
16 -2 16 -6 0 -4 -18 -33 -26 -33 -10 0 5 7 30 16 57 18 52 23 50 49 -25z"/>
<path d="M4300 1350 c-9 -6 -10 -10 -3 -10 6 0 15 5 18 10 8 12 4 12 -15 0z"/>
<path d="M4680 1333 c-32 -12 -50 -37 -50 -71 0 -45 47 -90 144 -139 85 -42
116 -69 116 -99 0 -26 -14 -39 -60 -53 l-35 -11 34 5 c42 6 71 31 71 60 0 29
-42 65 -126 109 -99 51 -136 89 -132 135 5 58 35 66 147 41 94 -21 156 -26
165 -12 2 4 -12 6 -33 4 -20 -2 -76 6 -125 17 -93 22 -93 22 -116 14z"/>
<path d="M5321 1292 c82 -100 97 -117 102 -112 3 3 -29 41 -70 85 -44 46 -57
57 -32 27z"/>
<path d="M3281 1252 c6 -17 13 -32 15 -32 8 0 -3 41 -14 52 -10 10 -10 6 -1
-20z"/>
<path d="M5287 1205 c10 -13 22 -25 27 -25 5 0 -1 11 -14 25 -30 32 -36 32
-13 0z"/>
<path d="M3300 1205 c0 -5 5 -17 10 -25 5 -8 10 -10 10 -5 0 6 -5 17 -10 25
-5 8 -10 11 -10 5z"/>
<path d="M5162 1108 c2 -6 33 -36 69 -67 l64 -55 -65 67 c-66 69 -75 76 -68
55z"/>
<path d="M4271 997 c-1 -50 3 -76 9 -72 6 4 10 -18 10 -59 0 -39 4 -66 10 -66
7 0 8 23 4 65 -6 56 -5 65 10 65 13 0 16 -12 17 -67 2 -57 3 -61 8 -28 5 31
10 40 26 40 16 0 21 -9 26 -45 l7 -45 -2 50 c-1 47 -3 50 -28 53 -22 3 -28 9
-28 28 0 19 -5 24 -24 24 -22 0 -25 6 -33 68 l-10 67 -2 -78z"/>
<path d="M3799 1039 c-8 -15 -8 -19 0 -15 17 11 13 -10 -5 -28 -14 -15 -14
-16 0 -16 21 0 20 -9 -1 -27 -17 -14 -17 -14 0 -9 12 4 17 0 17 -14 0 -11 5
-20 10 -20 6 0 10 9 10 20 0 14 5 18 18 14 16 -5 16 -5 0 9 -10 8 -18 19 -18
25 0 6 8 9 18 6 13 -5 14 -4 3 4 -8 6 -15 21 -17 34 -1 12 -3 26 -3 31 -2 15
-21 6 -32 -14z"/>
<path d="M3661 924 c-39 -107 -39 -114 -1 -114 23 0 30 -4 30 -20 0 -11 5 -20
10 -20 6 0 10 9 10 20 0 16 7 20 30 20 37 0 37 6 6 96 -33 94 -37 104 -46 104
-5 0 -22 -38 -39 -86z m92 -83 c1 -10 -6 -16 -20 -17 -19 -1 -23 4 -23 27 0
15 -4 31 -10 34 -6 4 -10 -8 -10 -29 0 -32 -3 -36 -25 -36 -14 0 -25 2 -25 5
0 2 10 30 21 62 45 120 38 116 65 38 13 -38 25 -76 27 -84z"/>
<path d="M3145 974 c-19 -19 -15 -38 8 -42 23 -5 22 15 0 21 -15 3 -13 6 7 14
32 13 60 0 60 -29 0 -17 3 -19 11 -11 9 9 8 18 -5 37 -19 30 -56 34 -81 10z"/>
<path d="M4670 970 c8 -5 24 -10 34 -10 26 0 18 6 -19 14 -22 5 -26 4 -15 -4z"/>
<path d="M3180 950 c0 -5 5 -10 10 -10 6 0 10 5 10 10 0 6 -4 10 -10 10 -5 0
-10 -4 -10 -10z"/>
<path d="M4748 953 c6 -2 18 -2 25 0 6 3 1 5 -13 5 -14 0 -19 -2 -12 -5z"/>
<path d="M3898 918 c-22 -22 -23 -29 -3 -22 8 4 15 1 15 -5 0 -7 -7 -14 -15
-17 -8 -4 -15 -10 -15 -15 0 -4 7 -6 15 -3 8 4 15 2 15 -4 0 -5 -7 -12 -15
-16 -8 -3 -15 -11 -15 -17 0 -8 4 -8 14 0 12 10 15 7 19 -16 l4 -28 2 29 c1
24 3 27 16 16 8 -7 15 -8 15 -2 0 5 -7 15 -15 22 -8 7 -15 17 -15 22 0 6 7 5
15 -2 11 -9 15 -9 15 -1 0 6 -7 14 -15 17 -8 4 -15 13 -15 21 0 13 3 13 18 2
13 -11 13 -8 -3 11 -11 14 -20 25 -20 26 0 0 -8 -8 -17 -18z"/>
<path d="M2973 908 c-27 -19 -32 -29 -31 -58 l1 -35 4 33 c4 30 7 33 29 28 14
-4 24 -2 24 4 0 5 -5 10 -12 10 -8 0 -6 6 5 17 16 16 18 16 32 -2 8 -11 15
-26 15 -32 0 -18 20 -16 20 2 0 10 10 15 30 15 20 0 30 -5 30 -15 0 -8 5 -15
10 -15 13 0 13 12 0 44 -9 24 -14 26 -67 26 -44 0 -66 -5 -90 -22z m137 2 c0
-5 -16 -10 -35 -10 -19 0 -35 5 -35 10 0 6 16 10 35 10 19 0 35 -4 35 -10z"/>
<path d="M4678 889 c-25 -28 -28 -39 -28 -105 0 -67 -2 -74 -20 -74 -16 0 -20
7 -20 30 0 28 -3 30 -34 30 -28 0 -35 -4 -38 -22 -2 -19 -10 -24 -40 -26 -38
-3 -38 -4 -38 -47 0 -24 5 -47 10 -50 6 -4 10 12 10 39 0 44 1 46 29 46 28 0
30 -2 34 -47 2 -36 4 -30 5 25 2 70 3 73 25 70 14 -2 23 -10 23 -23 1 -11 3
-40 4 -65 3 -45 3 -45 9 -10 9 49 34 46 42 -5 4 -25 7 0 8 68 l1 107 40 0 c33
0 40 -4 41 -20 1 -11 3 -24 4 -30 1 -5 4 -43 5 -82 2 -47 5 -59 7 -35 6 50 35
48 44 -3 5 -29 7 -25 8 23 l1 57 55 0 55 0 0 -62 c0 -34 3 -59 6 -56 10 10 14
61 8 101 -5 34 -8 37 -39 37 -21 0 -35 6 -39 16 -3 9 -15 14 -28 12 -19 -2
-24 -10 -26 -40 -3 -30 -7 -38 -23 -38 -17 0 -19 7 -19 65 0 68 -15 115 -36
115 -7 0 -14 7 -16 15 -2 12 -10 8 -30 -16z m52 -24 c12 -14 9 -16 -23 -13
-21 1 -37 6 -37 11 0 5 7 7 15 3 8 -3 15 -1 15 4 0 15 16 12 30 -5z m112 -107
c-9 -9 -15 -9 -24 0 -9 9 -7 12 12 12 19 0 21 -3 12 -12z"/>
<path d="M3203 898 c-17 -8 -23 -20 -23 -45 0 -18 5 -33 11 -33 6 0 8 9 4 20
-6 18 -2 20 34 20 29 0 41 -5 44 -17 3 -12 5 -8 6 9 1 28 -22 59 -42 57 -7 0
-22 -5 -34 -11z m57 -17 c0 -5 -13 -9 -30 -9 -16 1 -30 5 -30 10 0 4 14 8 30
8 17 0 30 -4 30 -9z"/>
<path d="M4222 903 c-28 -10 -62 -51 -61 -74 1 -21 2 -20 9 6 8 30 8 30 9 -7
1 -48 21 -50 21 -3 0 19 4 35 10 35 5 0 7 7 4 15 -4 9 0 15 9 15 12 0 17 -13
20 -47 l3 -48 2 52 c2 53 -3 64 -26 56z"/>
<path d="M3002 828 c-7 -7 -11 -23 -11 -37 2 -23 2 -23 6 -4 6 29 29 47 50 39
15 -6 15 -9 3 -16 -8 -5 -18 -6 -22 -4 -4 3 -8 -2 -8 -10 0 -21 26 -21 34 0 3
8 11 12 17 9 6 -4 8 -13 5 -21 -3 -8 -1 -14 4 -14 17 0 11 36 -8 53 -22 20
-53 22 -70 5z"/>
<path d="M3127 833 c-12 -11 -8 -23 8 -23 8 0 15 -7 15 -15 0 -8 4 -15 9 -15
12 0 2 37 -14 50 -6 5 -15 7 -18 3z"/>
<path d="M4693 793 c9 -2 23 -2 30 0 6 3 -1 5 -18 5 -16 0 -22 -2 -12 -5z"/>
<path d="M4680 740 c0 -5 9 -10 20 -10 11 0 20 5 20 10 0 6 -9 10 -20 10 -11
0 -20 -4 -20 -10z"/>
<path d="M4842 714 c1 -9 9 -19 16 -22 9 -3 13 2 10 14 -1 9 -9 19 -16 22 -9
3 -13 -2 -10 -14z"/>
<path d="M4885 710 c-3 -5 1 -10 10 -10 9 0 13 5 10 10 -3 6 -8 10 -10 10 -2
0 -7 -4 -10 -10z"/>
<path d="M4698 694 c-3 -5 -8 -21 -12 -36 -6 -25 -4 -28 19 -28 14 0 25 2 25
4 0 14 -28 67 -32 60z"/>
<path d="M4490 680 c0 -5 7 -10 15 -10 8 0 15 5 15 10 0 6 -7 10 -15 10 -8 0
-15 -4 -15 -10z"/>
<path d="M4164 614 c-42 -42 -15 -104 46 -104 34 0 57 18 65 52 5 21 1 33 -19
52 -32 33 -60 33 -92 0z m80 -13 c37 -41 -14 -97 -60 -66 -28 18 -31 41 -7 67
21 23 45 23 67 -1z"/>
</g>
</svg>
